<?xml version="1.0" encoding="UTF-8"?>
<svg id="form_bg_img" width="307" height="355" data-name="form bg img" xmlns="http://www.w3.org/2000/svg" viewBox="0 0 307 355">
	<defs>
		<style>
			.cls-1 {
				fill: #f4f5fc;
				fill-rule: evenodd;
				stroke: #5a61ed30;
				stroke-width: 1px;
				stroke-dasharray: 1500;
				stroke-dashoffset: 1500;
				animation: draw_path 6s linear forwards;
			}

			@keyframes draw_path {
				to {
					stroke-dashoffset: 0;
				}
			}
		</style>
	</defs>
	<path id="contour" class="cls-1" d="m205.5,411C92.236,411,0,318.764,0,205.5S92.236,0,205.5,0s205.5,92.236,205.5,205.5c0,65.862-31.188,124.613-79.562,162.254,2.343-2.36,3.857-5.553,4.083-9.176.479-3.827.479-6.697.479-10.045v-4.784c-.121-6.066-.65-12.024-1.56-17.848,29.487-31.558,47.56-73.911,47.56-120.401,0-97.314-79.186-176.5-176.5-176.5S29,108.186,29,205.5c0,46.877,18.375,89.547,48.299,121.186-1.017,7.115-1.45,14.414-1.252,21.847,0,2.87,0,6.218.479,10.045.479,8.132,7.181,13.873,15.32,13.394,8.138-.478,13.883-7.175,13.405-15.307-.358-2.502-.448-4.469-.471-6.302,28.582,19.935,63.312,31.637,100.721,31.637,37.857,0,72.971-11.984,101.747-32.357-.04.825-.116,1.693-.194,2.589-.125,1.432-.256,2.932-.256,4.433-.479,7.653,5.266,14.829,13.405,15.307h.957c2.632,0,5.094-.678,7.212-1.878-34.301,25.679-76.85,40.906-122.871,40.906Zm101.747-61.357c9.856-6.978,18.968-14.94,27.193-23.742-9.934-63.534-65.27-111.189-131.05-109.874-64.801,1.286-117.292,49.084-126.091,110.659,8.317,8.794,17.526,16.735,27.48,23.677-.008-.62-.008-1.225-.008-1.83v-4.306c.957-55.968,47.395-100.456,103.407-99.02,56.012.956,100.534,47.357,99.098,103.326,0,.359-.011.73-.029,1.11Zm21.124,20.451c1.03-.77,2.052-1.551,3.067-2.34-.907.913-1.938,1.701-3.067,2.34Zm-181.371-227.594c0,31.839,25.661,57.5,57.5,57.5s57.5-25.661,57.5-57.5-25.661-57.5-57.5-57.5-57.5,25.661-57.5,57.5Zm58.5-28.5c-16.443,0-29.5,13.057-29.5,29.5s13.057,29.5,29.5,29.5,29.5-13.057,29.5-29.5-13.057-29.5-29.5-29.5Z"/>
</svg>