<?xml version="1.0" encoding="UTF-8"?>
<svg id="_Слой_1" data-name="Слой 1" xmlns="http://www.w3.org/2000/svg" viewBox="0 0 15 14">
  <defs>
    <style>
      .cls-1 {
        fill: #5a61ed;
      }
    </style>
  </defs>
  <path id="first" class="cls-1" d="m7,1.5c0-.276.224-.5.5-.5h7c.276,0,.5.224.5.5v1c0,.276-.224.5-.5.5h-7c-.276,0-.5-.224-.5-.5v-1ZM2,0C.895,0,0,.895,0,2v2c0,1.105.895,2,2,2h2c1.105,0,2-.895,2-2v-2c0-1.105-.895-2-2-2h-2Zm0,8c-1.105,0-2,.895-2,2v2c0,1.105.895,2,2,2h2c1.105,0,2-.895,2-2v-2c0-1.105-.895-2-2-2h-2Zm.854-3.646c-.195.196-.512.196-.707,0,0,0,0,0,0,0l-1-1c-.196-.196-.196-.512,0-.708.196-.196.512-.196.708,0l.646.647,1.646-1.647c.196-.196.512-.196.708,0,.196.196.196.512,0,.708l-2,2Zm0,8c-.195.196-.512.196-.707,0,0,0,0,0,0,0l-1-1c-.196-.196-.196-.512,0-.708.196-.196.512-.196.708,0h0l.646.647,1.646-1.647c.196-.196.512-.196.708,0s.196.512,0,.708l-2,2Zm4.146-2.854c0-.276.224-.5.5-.5h7c.276,0,.5.224.5.5v1c0,.276-.224.5-.5.5h-7c-.276,0-.5-.224-.5-.5v-1Zm0-5c0-.276.224-.5.5-.5h5c.276,0,.5.224.5.5s-.224.5-.5.5h-5c-.276,0-.5-.224-.5-.5Zm0,8c0-.276.224-.5.5-.5h5c.276,0,.5.224.5.5s-.224.5-.5.5h-5c-.276,0-.5-.224-.5-.5Z"/>
</svg>